<svg width="24" height="18" viewBox="0 0 24 18" fill="none" xmlns="http://www.w3.org/2000/svg">
<path d="M19.8837 2.65894L21.1757 1.75H19.596H4.404H2.82427L4.11631 2.65894L11.7123 8.00269L12 8.20508L12.2877 8.00269L19.8837 2.65894ZM2.68759 3.24724L1.9 2.69346V3.65625V14.625C1.9 15.0668 2.08749 15.4834 2.4095 15.7853C2.73042 16.0861 3.15917 16.25 3.6 16.25H20.4C20.8408 16.25 21.2696 16.0861 21.5905 15.7853C21.9125 15.4834 22.1 15.0668 22.1 14.625V3.65625V2.69346L21.3124 3.24724L12.4324 9.49099C12.3109 9.57641 12.1592 9.625 12 9.625C11.8408 9.625 11.6891 9.57642 11.5676 9.49099L2.68759 3.24724ZM3.6 0.5H20.4C21.2322 0.5 22.0244 0.810233 22.6036 1.35328C23.1818 1.89531 23.5 2.6233 23.5 3.375V14.625C23.5 15.3767 23.1818 16.1047 22.6036 16.6467C22.0244 17.1898 21.2322 17.5 20.4 17.5H3.6C2.76779 17.5 1.97564 17.1898 1.39639 16.6467C0.818225 16.1047 0.5 15.3767 0.5 14.625V3.375C0.5 2.6233 0.818225 1.89531 1.39639 1.35328C1.97564 0.810233 2.76779 0.5 3.6 0.5Z" fill="#07A52F" stroke="#0231A8"/>
</svg>
