<svg width="24" height="24" viewBox="0 0 24 24" fill="none" xmlns="http://www.w3.org/2000/svg">
<path d="M22.6758 0H1.32421C0.592868 0 0 0.592868 0 1.32421V22.6758C0 23.4071 0.592868 24 1.32421 24H22.6758C23.4071 24 24 23.4071 24 22.6758V1.32421C24 0.592868 23.4071 0 22.6758 0Z" fill="#3D5A98"/>
<path d="M16.5578 23.998V14.7043H19.6767L20.1431 11.0825H16.5578V8.77066C16.5578 7.72225 16.8498 7.00641 18.3525 7.00641H20.2709V3.76179C19.3419 3.66498 18.4084 3.61894 17.4744 3.6239C14.7124 3.6239 12.8103 5.30704 12.8103 8.41173V11.0825H9.69141V14.7043H12.8103V23.998H16.5578Z" fill="white"/>
</svg>
