<svg width="106" height="85" viewBox="0 0 106 85" fill="none" xmlns="http://www.w3.org/2000/svg">
<path d="M78.2859 85C73.5805 85 69.3716 83.5159 65.6591 80.5476C61.9898 77.5794 59.5292 73.7341 58.2773 69.0119C57.414 65.7288 56.9823 62.2659 56.9823 58.623C56.9823 53.0913 58.0183 47.4921 60.0904 41.8254C62.1625 36.1138 65.0116 30.7394 68.6377 25.7024C72.2639 20.6653 76.4512 15.9656 81.1998 11.6032C85.9914 7.19577 91.1285 3.32804 96.6109 0L106 9.78175C96.2439 17.922 89.5744 24.2183 85.9914 28.6706C82.4516 33.123 80.617 37.5529 80.4875 41.9603C85.754 42.59 90.1572 44.9511 93.697 49.0437C97.2368 53.1362 99.0067 57.9259 99.0067 63.4127C99.0067 69.3942 96.9778 74.4987 92.92 78.7262C88.9053 82.9087 84.0273 85 78.2859 85ZM21.3036 85C16.5982 85 12.3893 83.5159 8.67685 80.5476C5.00753 77.5794 2.54694 73.7341 1.29505 69.0119C0.431684 65.7288 0 62.2659 0 58.623C0 53.0913 1.03604 47.4921 3.10812 41.8254C5.18021 36.1138 8.02932 30.7394 11.6555 25.7024C15.2816 20.6653 19.4689 15.9656 24.2175 11.6032C29.0092 7.19577 34.1462 3.32804 39.6286 0L49.0177 9.78175C39.2617 17.922 32.5921 24.2183 29.0092 28.6706C25.4694 33.123 23.6347 37.5529 23.5052 41.9603C28.7717 42.59 33.1749 44.9511 36.7147 49.0437C40.2545 53.1362 42.0244 57.9259 42.0244 63.4127C42.0244 69.3942 39.9955 74.4987 35.9377 78.7262C31.923 82.9087 27.045 85 21.3036 85Z" fill="#A6BCE5"/>
</svg>
