<svg width="24" height="24" viewBox="0 0 24 24" fill="none" xmlns="http://www.w3.org/2000/svg">
<path d="M22.2295 9.08847e-05H1.77049C1.30629 -0.0046333 0.859174 0.174984 0.52725 0.499529C0.195326 0.824074 0.00570713 1.26704 0 1.73123V22.2727C0.00673925 22.7362 0.196812 23.1782 0.528624 23.5019C0.860435 23.8256 1.30696 24.0046 1.77049 23.9999H22.2295C22.6937 24.0036 23.1406 23.8234 23.4723 23.4986C23.8041 23.1739 23.9938 22.731 24 22.2668V1.72532C23.9917 1.2625 23.8011 0.821646 23.4696 0.49859C23.138 0.175535 22.6924 -0.00361171 22.2295 9.08847e-05Z" fill="#0076B2"/>
<path d="M3.55281 8.99613H7.11543V20.459H3.55281V8.99613ZM5.33511 3.29126C5.74372 3.29126 6.14316 3.41245 6.48288 3.63951C6.82261 3.86656 7.08735 4.18927 7.24363 4.56682C7.39991 4.94436 7.4407 5.35978 7.36084 5.76051C7.28098 6.16124 7.08406 6.52929 6.79499 6.81808C6.50592 7.10688 6.13768 7.30345 5.73687 7.38293C5.33606 7.4624 4.92068 7.42122 4.54328 7.26458C4.16588 7.10794 3.84342 6.84289 3.61669 6.50295C3.38996 6.16301 3.26914 5.76346 3.26953 5.35485C3.27005 4.80737 3.48791 4.28249 3.87522 3.89555C4.26253 3.50861 4.78762 3.29126 5.33511 3.29126ZM9.35019 8.99613H12.7653V10.5699H12.8125C13.2885 9.66892 14.4492 8.71876 16.1823 8.71876C19.7902 8.71089 20.459 11.0853 20.459 14.164V20.459H16.8964V14.882C16.8964 13.5541 16.8728 11.8446 15.0453 11.8446C13.2177 11.8446 12.9069 13.2925 12.9069 14.7954V20.459H9.35019V8.99613Z" fill="white"/>
</svg>
