<svg width="26" height="32" viewBox="0 0 26 32" fill="none" xmlns="http://www.w3.org/2000/svg">
<path d="M13 17.4C15.2782 17.4 17.125 15.5196 17.125 13.2C17.125 10.8804 15.2782 9 13 9C10.7218 9 8.875 10.8804 8.875 13.2C8.875 15.5196 10.7218 17.4 13 17.4Z" stroke="#0231A8" stroke-width="2.5" stroke-linecap="round" stroke-linejoin="round"/>
<path d="M13 2C10.0826 2 7.28473 3.18 5.22183 5.2804C3.15893 7.38081 2 10.2296 2 13.2C2 15.8488 2.55275 17.582 4.0625 19.5L13 30L21.9375 19.5C23.4473 17.582 24 15.8488 24 13.2C24 10.2296 22.8411 7.38081 20.7782 5.2804C18.7153 3.18 15.9174 2 13 2Z" stroke="#0231A8" stroke-width="2.5" stroke-linecap="round" stroke-linejoin="round"/>
</svg>
