<svg width="83" height="84" viewBox="0 0 83 84" fill="none" xmlns="http://www.w3.org/2000/svg">
<path d="M75.7324 32.3292C77.8877 41.5762 76.8839 51.3419 72.9017 59.8679C68.9195 68.3939 62.2206 75.1201 54.0111 78.8352C45.8017 82.5503 36.6212 83.0103 28.1227 80.1323C19.6242 77.2543 12.3661 71.2274 7.65536 63.1369C2.9446 55.0464 1.0907 45.4239 2.42748 36.002C3.76425 26.5801 8.20387 17.9779 14.9469 11.7443C21.69 5.51081 30.2934 2.05553 39.208 2.00066C48.1226 1.9458 56.7627 5.29495 63.5724 11.4451" stroke="#0231A8" stroke-width="3" stroke-linecap="round"/>
<path d="M66.1513 41.9999C66.1513 48.2292 64.2469 54.2878 60.7279 59.2531C57.209 64.2184 52.2684 67.8183 46.6586 69.5046C41.0488 71.1908 35.0772 70.8711 29.6531 68.594C24.2291 66.3169 19.6498 62.2072 16.6127 56.8908C13.5755 51.5745 12.247 45.3427 12.8294 39.1446C13.4117 32.9465 15.8731 27.1216 19.8386 22.5571C23.8041 17.9926 29.0565 14.9385 34.7958 13.86C40.5352 12.7814 46.447 13.7376 51.6311 16.5827" stroke="#0231A8" stroke-width="3" stroke-linecap="round"/>
<path d="M55.4602 44.2349C55.0276 47.7364 53.5897 51.0102 51.3429 53.6088C49.0961 56.2074 46.1501 58.004 42.9077 58.753C39.6653 59.5019 36.2847 59.1667 33.228 57.7931C30.1714 56.4195 27.5879 54.0746 25.8308 51.0789C24.0736 48.0832 23.2286 44.583 23.4111 41.0568C23.5937 37.5305 24.795 34.1503 26.8507 31.3783C28.9065 28.6063 31.7164 26.5777 34.8963 25.57C38.0763 24.5622 41.471 24.6244 44.6165 25.748" stroke="#0231A8" stroke-width="3" stroke-linecap="round"/>
<path d="M74.7653 9.00331L75.4905 7.69472L75.4905 7.69472L74.7653 9.00331ZM75.2779 9.96607L73.7837 9.83052L73.7837 9.83052L75.2779 9.96607ZM73.6806 9.07257L74.5823 10.2773L74.5823 10.2773L73.6806 9.07257ZM55.5273 22.6254L56.429 23.8301L56.429 23.8301L55.5273 22.6254ZM55.1367 23.2962L53.6491 23.0975L53.6491 23.0976L55.1367 23.2962ZM54.258 30.2149L55.157 31.4216C55.4821 31.18 55.6944 30.8163 55.7456 30.4135L54.258 30.2149ZM38.0518 42.2578L37.1528 41.0511L37.1528 41.0511L38.0518 42.2578ZM37.8511 43.6568L39.0512 42.765L37.8511 43.6568ZM39.2505 43.8667L40.1495 45.0734L40.1496 45.0734L39.2505 43.8667ZM54.6304 32.4378L55.3284 31.1143C54.8161 30.8415 54.1946 30.8869 53.7314 31.2311L54.6304 32.4378ZM54.8072 32.5114L54.3737 33.9449L54.3737 33.9449L54.8072 32.5114ZM63.1895 35.0986L63.6231 33.665L63.6231 33.665L63.1895 35.0986ZM64.075 34.9495L63.1803 33.7395L63.1803 33.7395L64.075 34.9495ZM81.0321 22.4449L80.1375 21.2349L80.1375 21.2349L81.0321 22.4449ZM81.4242 21.4953L82.9069 21.2808L82.9069 21.2808L81.4242 21.4953ZM80.7686 20.6972L80.2692 22.1088L80.2692 22.1088L80.7686 20.6972ZM74.5624 18.4636L73.0682 18.328C73.011 19.0078 73.4198 19.6436 74.063 19.8751L74.5624 18.4636ZM56.4018 30.9137L54.989 30.4016C54.8515 30.7875 54.8784 31.214 55.0634 31.5817C55.2484 31.9493 55.5755 32.226 55.9683 32.3473L56.4018 30.9137ZM63.2859 33.0385L62.8524 34.472C63.3069 34.6123 63.7995 34.5294 64.1806 34.2484L63.2859 33.0385ZM78.333 21.9424L79.2277 23.1523C79.6724 22.8244 79.8985 22.2766 79.8158 21.7279C79.733 21.1792 79.3549 20.7188 78.8325 20.5308L78.333 21.9424ZM73.1685 20.0836L72.6691 21.4952L72.6691 21.4952L73.1685 20.0836ZM72.5053 19.0522L73.9996 19.1878L73.9996 19.1878L72.5053 19.0522ZM73.0982 12.0113L74.5924 12.1468C74.642 11.5577 74.3409 10.9921 73.8234 10.7027C73.306 10.4132 72.6688 10.4539 72.1965 10.8066L73.0982 12.0113ZM57.0669 23.9798L56.1652 22.7751C55.8417 23.0167 55.6304 23.3795 55.5793 23.7812L57.0669 23.9798ZM56.2984 30.0316L54.8108 29.833C54.766 30.1855 54.8479 30.5433 55.0419 30.8425L56.2984 30.0316ZM74.04 10.3119C73.8675 10.2154 73.7671 10.0269 73.7837 9.83052L76.7721 10.1016C76.8548 9.11973 76.3529 8.17714 75.4905 7.69472L74.04 10.3119ZM74.5823 10.2773C74.4249 10.3948 74.2125 10.4084 74.04 10.3119L75.4905 7.69472C74.6281 7.21231 73.5662 7.28012 72.7789 7.86788L74.5823 10.2773ZM56.429 23.8301L74.5823 10.2773L72.7789 7.86788L54.6256 21.4207L56.429 23.8301ZM56.6243 23.4948C56.6073 23.6286 56.5368 23.7496 56.429 23.8301L54.6256 21.4207C54.0863 21.8233 53.7341 22.4281 53.6491 23.0975L56.6243 23.4948ZM55.7456 30.4135L56.6243 23.4948L53.6491 23.0976L52.7704 30.0163L55.7456 30.4135ZM38.9508 43.4645L55.157 31.4216L53.359 29.0082L37.1528 41.0511L38.9508 43.4645ZM39.0512 42.765C39.2167 42.9871 39.1718 43.3003 38.9508 43.4645L37.1528 41.0511C36.0481 41.872 35.8234 43.4379 36.6509 44.5486L39.0512 42.765ZM38.3515 42.66C38.5724 42.4958 38.8857 42.5428 39.0512 42.765L36.6509 44.5486C37.4785 45.6593 39.0449 45.8943 40.1495 45.0734L38.3515 42.66ZM53.7314 31.2311L38.3515 42.66L40.1496 45.0734L55.5294 33.6445L53.7314 31.2311ZM55.2408 31.0778C55.2707 31.087 55.3001 31.0993 55.3284 31.1143L53.9324 33.7613C54.072 33.8356 54.2196 33.8974 54.3737 33.9449L55.2408 31.0778ZM63.6231 33.665L55.2408 31.0778L54.3737 33.9449L62.756 36.5321L63.6231 33.665ZM63.1803 33.7395C63.3074 33.6459 63.4716 33.6182 63.6231 33.665L62.756 36.5321C63.5135 36.7659 64.3346 36.6277 64.9696 36.1594L63.1803 33.7395ZM80.1375 21.2349L63.1803 33.7395L64.9696 36.1594L81.9268 23.6548L80.1375 21.2349ZM79.9415 21.7097C79.9139 21.5268 79.9893 21.3442 80.1375 21.2349L81.9268 23.6548C82.6679 23.1083 83.0448 22.1954 82.9069 21.2808L79.9415 21.7097ZM80.2692 22.1088C80.0951 22.0461 79.969 21.8926 79.9415 21.7097L82.9069 21.2808C82.769 20.3663 82.1388 19.599 81.2681 19.2857L80.2692 22.1088ZM74.063 19.8751L80.2692 22.1088L81.2681 19.2857L75.0619 17.052L74.063 19.8751ZM73.7837 9.83052L73.0682 18.328L76.0567 18.5991L76.7721 10.1016L73.7837 9.83052ZM55.9683 32.3473L62.8524 34.472L63.7194 31.6049L56.8353 29.4801L55.9683 32.3473ZM64.1806 34.2484L79.2277 23.1523L77.4384 20.7324L62.3913 31.8286L64.1806 34.2484ZM78.8325 20.5308L73.668 18.6721L72.6691 21.4952L77.8336 23.3539L78.8325 20.5308ZM73.668 18.6721C73.8824 18.7493 74.0187 18.9612 73.9996 19.1878L71.0111 18.9167C70.9157 20.0497 71.597 21.1093 72.6691 21.4952L73.668 18.6721ZM73.9996 19.1878L74.5924 12.1468L71.6039 11.8757L71.0111 18.9167L73.9996 19.1878ZM72.1965 10.8066L56.1652 22.7751L57.9686 25.1845L73.9999 13.2159L72.1965 10.8066ZM55.5793 23.7812L54.8108 29.833L57.7859 30.2302L58.5545 24.1784L55.5793 23.7812ZM55.0419 30.8425C54.9523 30.7043 54.9397 30.5399 54.989 30.4016L57.8146 31.4258C58.067 30.7176 57.9949 29.8995 57.5548 29.2207L55.0419 30.8425Z" fill="#0231A8"/>
</svg>
