<svg width="24" height="24" viewBox="0 0 24 24" fill="none" xmlns="http://www.w3.org/2000/svg">
<path d="M2.10989 1.86229H2.54261H7.84584H8.18437L8.31008 2.17662L10.0192 6.45L10.1698 6.82666L9.83227 7.05169L7.08632 8.88236C7.08627 8.88239 7.08622 8.88243 7.08617 8.88246C6.99298 8.94467 6.91657 9.02891 6.86373 9.12772C6.81193 9.22458 6.78433 9.33249 6.78325 9.44226L6.78428 9.47508L6.78442 9.4793L6.78444 9.48025L6.78447 9.48056L6.78446 9.48068L6.78447 9.48095L6.78448 9.48111L6.78448 9.48121L6.78448 9.48123L6.78448 9.48126L6.78448 9.48128L6.78458 9.48421L6.7846 9.48514L6.78467 9.48776L6.78476 9.49312L6.78475 9.50485C6.78474 9.50518 6.7845 9.50577 6.78404 9.50659C6.78499 9.53619 6.78659 9.56578 6.78885 9.59532L6.78897 9.59692C6.79544 9.68535 6.8062 9.80493 6.8267 9.95306C6.86915 10.2465 6.95148 10.6559 7.11307 11.1407C7.43881 12.1156 8.08116 13.3913 9.34508 14.6552C10.6088 15.919 11.8843 16.5614 12.858 16.8872L2.10989 1.86229ZM2.10989 1.86229L2.04779 2.29053C1.67869 4.83569 1.30436 11.7752 6.76471 17.2356C12.2251 22.6962 19.1633 22.3205 21.7093 21.9527L22.1378 21.8908V21.4578V16.3553V15.9318L21.72 15.8621L16.4806 14.9881L16.1163 14.9273L15.9511 15.2577L15.1598 16.8404L15.1597 16.8405C15.1032 16.9536 15.0163 17.0488 14.9087 17.1153C14.819 17.1708 14.7178 17.2046 14.6133 17.2142M2.10989 1.86229L14.6133 17.2142M14.6133 17.2142C14.6081 17.2141 14.6042 17.214 14.6024 17.2141L14.5938 17.2142L14.5884 17.2144L14.5864 17.2145L14.5838 17.2146L14.5827 17.2147L14.5801 17.2148L14.5792 17.2149L14.5787 17.2149L14.5773 17.215L14.5731 17.2152L14.5489 17.2165L14.5419 17.2163C14.377 17.2107 14.2125 17.1965 14.0492 17.1738C13.7518 17.13 13.3437 17.0487 12.8588 16.8875L14.6133 17.2142ZM7.07956 10.5232L8.45443 9.60709L10.5885 8.18513C10.944 7.94804 11.2071 7.59592 11.3337 7.18785C11.4604 6.77977 11.4428 6.34055 11.2841 5.94386L11.284 5.94375L9.57496 1.67044C9.4367 1.3249 9.19807 1.02871 8.88987 0.820089C8.58167 0.611465 8.21804 0.499975 7.84587 0.5H7.84584H2.48119C1.62956 0.5 0.851481 1.08873 0.7161 1.98462L0.716061 1.98488C0.322146 4.58245 -0.199445 12.1974 5.80172 18.1987C11.8028 24.1999 19.4175 23.6772 22.0154 23.2844C22.9118 23.1478 23.5 22.3704 23.5 21.5193V16.3553V16.3552C23.5001 15.9144 23.3437 15.4878 23.0588 15.1514C22.7739 14.8151 22.379 14.5906 21.9442 14.5181C21.9442 14.5181 21.9441 14.5181 21.9441 14.5181L16.7047 13.6452L16.7046 13.6452C16.3117 13.5796 15.9082 13.6417 15.5533 13.8224C15.1984 14.003 14.9108 14.2926 14.7326 14.6487C14.7326 14.6487 14.7326 14.6487 14.7326 14.6487C14.7326 14.6488 14.7325 14.6489 14.7325 14.649L14.324 15.4672L14.1454 15.825L13.7571 15.7293C13.5997 15.6906 13.444 15.6455 13.2902 15.5943C13.2901 15.5943 13.2899 15.5942 13.2898 15.5942L13.4479 15.1198L7.07956 10.5232ZM7.07956 10.5232H8.34722M7.07956 10.5232H8.34722M8.34722 10.5232C8.36585 10.5855 8.3855 10.6476 8.40617 10.7093M8.34722 10.5232L8.40617 10.7093M8.40617 10.7093C8.40609 10.7091 8.40601 10.7088 8.40592 10.7086L8.8805 10.5512L8.4064 10.71C8.40633 10.7098 8.40625 10.7096 8.40617 10.7093ZM6.719 9.43524L6.28323 9.44227C6.28367 9.36604 6.29148 9.2903 6.30641 9.21608C6.43944 9.20297 6.59101 9.22728 6.75271 9.3226C6.76464 9.36199 6.77351 9.40487 6.77863 9.43334L6.719 9.43524ZM14.3408 17.7065C14.3464 17.4717 14.4687 17.2746 14.5237 17.2286L14.525 17.2534L14.532 17.5095L14.5343 17.5951L14.5377 17.7169L14.5251 17.716C14.4636 17.7139 14.4021 17.7108 14.3408 17.7065Z" fill="#0231A8" stroke="#0231A8"/>
</svg>
