<svg width="24" height="24" viewBox="0 0 24 24" fill="none" xmlns="http://www.w3.org/2000/svg">
<path d="M0.51209 11.8957C0.511527 13.9189 1.04253 15.8943 2.05221 17.6355L0.415527 23.5847L6.53103 21.9883C8.22249 22.9051 10.1177 23.3854 12.0435 23.3855H12.0486C18.4062 23.3855 23.5815 18.2352 23.5842 11.9048C23.5855 8.83723 22.3866 5.95272 20.2084 3.78257C18.0306 1.6126 15.1342 0.416927 12.0481 0.415527C5.68972 0.415527 0.514809 5.56558 0.512184 11.8957" fill="url(#paint0_linear_247_436)"/>
<path d="M0.100313 11.892C0.0996563 13.9879 0.649687 16.034 1.69537 17.8376L0 24L6.33478 22.3464C8.08022 23.2938 10.0454 23.7934 12.0451 23.7941H12.0502C18.636 23.7941 23.9972 18.4585 24 11.9015C24.0011 8.72373 22.7591 5.73552 20.5031 3.48762C18.2468 1.24001 15.2468 0.00130665 12.0502 0C5.46337 0 0.102938 5.33485 0.100313 11.892ZM3.87291 17.527L3.63637 17.1532C2.64206 15.5792 2.11725 13.7604 2.118 11.8927C2.12006 6.4426 6.57544 2.0085 12.054 2.0085C14.7071 2.00962 17.2005 3.03926 19.0759 4.90739C20.9512 6.7757 21.9831 9.25926 21.9824 11.9007C21.98 17.3509 17.5245 21.7855 12.0502 21.7855H12.0463C10.2638 21.7846 8.51569 21.308 6.99113 20.4075L6.62831 20.1933L2.86912 21.1745L3.87291 17.527Z" fill="url(#paint1_linear_247_436)"/>
<path d="M9.06334 6.9203C8.83965 6.42536 8.60425 6.41538 8.39153 6.4067C8.21734 6.39923 8.01821 6.39979 7.81928 6.39979C7.62015 6.39979 7.29662 6.47436 7.02315 6.77162C6.7494 7.06917 5.97803 7.78819 5.97803 9.25061C5.97803 10.7131 7.048 12.1264 7.19715 12.325C7.3465 12.5231 9.26275 15.6202 12.2976 16.8117C14.8199 17.8019 15.3332 17.6049 15.8806 17.5553C16.4281 17.5058 17.6472 16.8364 17.8959 16.1423C18.1448 15.4483 18.1448 14.8534 18.0702 14.7291C17.9956 14.6052 17.7964 14.5309 17.4978 14.3823C17.1992 14.2336 15.7312 13.5145 15.4576 13.4153C15.1838 13.3161 14.9848 13.2667 14.7857 13.5643C14.5865 13.8615 14.0147 14.5309 13.8405 14.7291C13.6664 14.9278 13.4921 14.9525 13.1936 14.8039C12.8948 14.6547 11.9332 14.3412 10.7924 13.3287C9.90475 12.5407 9.3055 11.5678 9.13131 11.2701C8.95712 10.973 9.11265 10.8119 9.26237 10.6637C9.39653 10.5306 9.56106 10.3166 9.7105 10.1431C9.85937 9.96955 9.90906 9.84569 10.0086 9.64746C10.1083 9.44903 10.0584 9.27544 9.98387 9.12676C9.90906 8.97808 9.32884 7.50801 9.06334 6.9203Z" fill="white"/>
<defs>
<linearGradient id="paint0_linear_247_436" x1="1158.85" y1="2317.33" x2="1158.85" y2="0.415527" gradientUnits="userSpaceOnUse">
<stop stop-color="#1FAF38"/>
<stop offset="1" stop-color="#60D669"/>
</linearGradient>
<linearGradient id="paint1_linear_247_436" x1="1200" y1="2400" x2="1200" y2="0" gradientUnits="userSpaceOnUse">
<stop stop-color="#F9F9F9"/>
<stop offset="1" stop-color="white"/>
</linearGradient>
</defs>
</svg>
